# xmcd
#
# Track frame offsets:
# 150
# 12919
# 30246
# 39888
# 50416
# 67116
# 81884
# 95292
# 114870
# 126729
# 135497
# 157438
# 170801
# 180362
# 192716
# 212087
# 226307
# 237950
# 246015
# 255568
# 266464
#
# Disc length: 3651 seconds
#
#
# Revision: 0
# Processed by: cddbd v1.5.1PL2 Copyright (c) Steve Scherf et al.
# Submitted via: FreeRIP 2.945 
#
DISCID=220e4115
DTITLE=Kara Barnard - Brown County Waltz
DYEAR=2004
DGENRE=Bluegrass
TTITLE0=Flowers of Adrigole
TTITLE1=Cuckoo's Nest
TTITLE2=Swallow's Nest
TTITLE3=Amazing Grace
TTITLE4=Nick's Dilemma
TTITLE5=Calico Rising
TTITLE6=Lady Jamie Takes a Mandolin
TTITLE7=Rebecca Reading
TTITLE8=Coleman's Corssing
TTITLE9=Slick Rock Road
TTITLE10=Rocking Chair
TTITLE11=Over the Waterfall
TTITLE12=The Beagle has Landed
TTITLE13=Cinderella Waltz
TTITLE14=Not in My Name
TTITLE15=Goose Pond Farewell
TTITLE16=Wildwood Flower
TTITLE17=Chikents Doing Reiki/Ode to Chip
TTITLE18=Cindy, Cindy
TTITLE19=Arkansas Traveler
TTITLE20=Extra
EXTD=
EXTT0=
EXTT1=
EXTT2=
EXTT3=
EXTT4=
EXTT5=
EXTT6=
EXTT7=
EXTT8=
EXTT9=
EXTT10=
EXTT11=
EXTT12=
EXTT13=
EXTT14=
EXTT15=
EXTT16=
EXTT17=
EXTT18=
EXTT19=
EXTT20=
PLAYORDER=
